<svg xmlns="http://www.w3.org/2000/svg" viewBox="0 0 24 24" width="24" height="24">
  <path fill="#25D366" d="M12.017 0C5.396 0 .062 5.335.062 11.956c0 1.921.524 3.7 1.422 5.335L0 24l6.97-1.793c1.558.879 3.342 1.422 5.335 1.422 6.619 0 11.956-5.335 11.956-11.956C24.034 5.335 18.699 0 12.017 0zm6.537 17.116c-.305.915-1.793 1.676-2.932 1.793-.763.076-1.676.152-4.119-.839-2.29-.915-4.043-2.747-5.186-4.576-1.372-2.137-1.524-4.27-.915-5.949.534-1.524 1.83-2.595 3.052-2.595.305 0 .61 0 .839.076.381.076.687.381.839.687l.61 1.524c.305.839 1.067 2.29 1.143 2.366.152.305.229.61.076.915-.076.152-.229.381-.381.61-.152.229-.305.381-.458.61-.152.152-.305.381-.152.61.076.229.687 1.067 1.448 1.676.992.763 1.83 1.067 2.137 1.143.305.076.61 0 .839-.229l1.372-1.219c.458-.381.915-.229 1.143-.152l2.137 1.067c.381.229.61.381.763.61.152.229.152 1.219-.153 2.061z"/>
</svg>